<?xml version="1.0" standalone="no"?>
<!DOCTYPE svg PUBLIC "-//W3C//DTD SVG 20010904//EN"
 "http://www.w3.org/TR/2001/REC-SVG-20010904/DTD/svg10.dtd">
<svg version="1.0" xmlns="http://www.w3.org/2000/svg"
 width="90.000000pt" height="25.000000pt" viewBox="0 0 90.000000 25.000000"
 preserveAspectRatio="xMidYMid meet">

<g transform="translate(0.000000,25.000000) scale(0.100000,-0.100000)"
fill="#000000" stroke="none">
<path d="M120 214 c0 -18 77 -162 97 -182 11 -11 14 -11 19 2 3 9 -16 54 -46
106 -49 86 -70 108 -70 74z"/>
<path d="M314 217 c-9 -24 1 -187 11 -190 6 -1 11 39 13 101 2 67 -1 102 -8
102 -6 0 -13 -6 -16 -13z"/>
<path d="M380 216 c0 -8 11 -17 24 -20 44 -11 40 -66 -5 -66 -30 0 -22 -23 25
-69 35 -34 45 -39 49 -27 4 10 -2 25 -13 36 -24 24 -24 27 -5 46 22 22 19 70
-7 94 -25 23 -68 27 -68 6z"/>
<path d="M545 220 c-8 -12 45 -112 63 -118 20 -6 14 26 -14 74 -29 49 -40 59
-49 44z"/>
<path d="M727 208 c-87 -141 -102 -178 -74 -178 8 0 24 21 37 48 13 26 34 64
47 84 24 39 30 68 13 68 -5 0 -16 -10 -23 -22z"/>
<path d="M832 128 c4 -133 23 -134 23 -1 0 70 -4 98 -13 101 -10 3 -12 -19
-10 -100z"/>
<path d="M52 103 c-38 -65 -36 -108 2 -60 15 19 31 27 54 27 22 0 32 5 32 15
0 9 -9 15 -25 15 -23 0 -24 2 -15 20 11 20 6 40 -8 40 -4 0 -22 -25 -40 -57z"/>
</g>
</svg>
